<?xml version="1.0" encoding="UTF-8" standalone="no"?>
<!-- Created with Inkscape (http://www.inkscape.org/) -->

<svg
   width="138mm"
   height="14mm"
   viewBox="0 0 138 14"
   version="1.1"
   id="svg5"
   xml:space="preserve"
   inkscape:version="1.2 (dc2aeda, 2022-05-15)"
   sodipodi:docname="hr.svg"
   xmlns:inkscape="http://www.inkscape.org/namespaces/inkscape"
   xmlns:sodipodi="http://sodipodi.sourceforge.net/DTD/sodipodi-0.dtd"
   xmlns="http://www.w3.org/2000/svg"
   xmlns:svg="http://www.w3.org/2000/svg"><sodipodi:namedview
     id="namedview7"
     pagecolor="#ffffff"
     bordercolor="#666666"
     borderopacity="1.0"
     inkscape:showpageshadow="2"
     inkscape:pageopacity="0.0"
     inkscape:pagecheckerboard="0"
     inkscape:deskcolor="#d1d1d1"
     inkscape:document-units="mm"
     showgrid="false"
     inkscape:zoom="0.78374771"
     inkscape:cx="572.25048"
     inkscape:cy="357.25782"
     inkscape:window-width="1033"
     inkscape:window-height="1366"
     inkscape:window-x="0"
     inkscape:window-y="25"
     inkscape:window-maximized="0"
     inkscape:current-layer="layer1" /><defs
     id="defs2" /><g
     inkscape:label="Layer 1"
     inkscape:groupmode="layer"
     id="layer1"><circle
       id="path108"
       style="fill:#4d4d4d;stroke:#ff0000;stroke-width:0.264583"
       cx="77.072334"
       cy="8.9731941"
       r="0.014506948" /><path
       style="fill:none;stroke:#000000;stroke-width:0.264583px;stroke-linecap:butt;stroke-linejoin:miter;stroke-opacity:1"
       d="M 2.4453405,7.0333178 H 135.95975"
       id="path168"
       sodipodi:nodetypes="cc" /><text
       xml:space="preserve"
       style="font-style:italic;font-weight:800;font-size:10.5833px;line-height:1.25;font-family:Inter;-inkscape-font-specification:'Inter Ultra-Bold Italic';stroke-width:0.264583"
       x="141.22128"
       y="95.478661"
       id="text471"><tspan
         sodipodi:role="line"
         id="tspan469"
         style="stroke-width:0.264583"
         x="141.22128"
         y="95.478661" /></text><path
       d="m 73.740075,5.4754803 c 0.80384,0 2.20235,0.68162 2.20235,1.5042675 0,0.8461597 -1.39851,1.5042691 -2.20235,1.5042691 h -2.7406 l -2.36217,4.1343991 c -0.13398,0.23269 -0.38312,0.37842 -0.65342,0.37842 h -1.32094 c -0.24915,0 -0.43013,-0.23974 -0.36197,-0.47949 l 1.15406,-4.0333291 h -2.41858 l -1.01539,1.3538494 c -0.071,0.094 -0.18239,0.15043 -0.30085,0.15043 h -0.98648 c -0.18206,0 -0.32976,-0.14808 -0.32976,-0.35022 0,-0.009 0.004,-0.04 0.0127,-0.0705 l 0.73945,-2.5878185 -0.73945,-2.5878175 c -0.008,-0.0306 -0.0127,-0.0611 -0.0127,-0.0917 0,-0.18098 0.1477,-0.32906 0.32976,-0.32906 h 0.98648 c 0.11846,0 0.22987,0.0564 0.30085,0.15043 l 1.01539,1.35384 h 2.41858 l -1.15406,-4.03333 c -0.0682,-0.24045 0.11282,-0.47948997 0.36197,-0.47948997 h 1.32094 c 0.2703,0 0.51944,0.14462997 0.65342,0.37888997 l 2.36217,4.13393 z"
       id="path523"
       style="fill:#4d4d4d;stroke-width:0.0235042" /></g></svg>
